<svg width="612" height="550" viewBox="0 0 612 550" fill="none" xmlns="http://www.w3.org/2000/svg">
<rect y="0.0148926" width="102.833" height="549.985" fill="url(#paint0_linear_443_2598)"/>
<rect y="207.993" width="102.833" height="9.24345" fill="#8EAD99"/>
<rect y="227.635" width="102.833" height="9.24345" fill="#8EAD99"/>
<rect y="247.277" width="102.833" height="9.24345" fill="#8EAD99"/>
<rect y="266.92" width="102.833" height="9.24345" fill="#8EAD99"/>
<rect y="286.562" width="102.833" height="9.24345" fill="#8EAD99"/>
<rect y="306.205" width="102.833" height="9.24345" fill="#8EAD99"/>
<rect x="101.833" y="0.0148926" width="102.833" height="549.985" fill="url(#paint1_linear_443_2598)"/>
<rect x="101.833" y="247.277" width="102.833" height="9.24345" fill="#8EAD99"/>
<rect x="101.833" y="266.919" width="102.833" height="9.24345" fill="#8EAD99"/>
<rect x="101.833" y="286.562" width="102.833" height="9.24345" fill="#8EAD99"/>
<rect x="101.833" y="306.204" width="102.833" height="9.24345" fill="#8EAD99"/>
<rect x="101.833" y="325.846" width="102.833" height="9.24345" fill="#8EAD99"/>
<rect x="101.833" y="345.488" width="102.833" height="9.24345" fill="#8EAD99"/>
<rect x="101.833" y="365.131" width="102.833" height="9.24345" fill="#8EAD99"/>
<rect x="203.667" y="0.0148926" width="102.833" height="549.985" fill="url(#paint2_linear_443_2598)"/>
<rect x="203.667" y="227.635" width="102.833" height="9.24345" fill="#054AFA"/>
<rect x="203.667" y="247.277" width="102.833" height="9.24345" fill="#054AFA"/>
<rect x="203.667" y="266.919" width="102.833" height="9.24345" fill="#054AFA"/>
<rect x="203.667" y="286.562" width="102.833" height="9.24345" fill="#054AFA"/>
<rect x="203.667" y="306.204" width="102.833" height="9.24345" fill="#054AFA"/>
<rect x="203.667" y="325.846" width="102.833" height="9.24345" fill="#054AFA"/>
<rect x="203.667" y="345.488" width="102.833" height="9.24345" fill="#054AFA"/>
<rect x="203.667" y="365.131" width="102.833" height="9.24345" fill="#054AFA"/>
<rect x="203.667" y="380.152" width="102.833" height="17.3315" fill="#056BFA"/>
<rect x="203.667" y="400.949" width="102.833" height="17.3315" fill="#0594FA"/>
<rect x="203.667" y="421.747" width="102.833" height="18.4869" fill="#05BDFA"/>
<rect x="203.667" y="443.7" width="102.833" height="18.4869" fill="#09D1E3"/>
<rect x="203.667" y="465.654" width="102.833" height="18.4869" fill="#0F9FAC"/>
<rect x="203.667" y="487.607" width="102.833" height="18.4869" fill="#337981"/>
<rect x="203.667" y="509.56" width="102.833" height="18.4869" fill="#238180"/>
<rect x="203.667" y="531.513" width="102.833" height="18.4869" fill="#1B7078"/>
<rect x="305.5" y="0.0148926" width="102.833" height="549.985" fill="url(#paint3_linear_443_2598)"/>
<rect x="305.5" y="188.35" width="102.833" height="9.24345" fill="#8EAD99"/>
<rect x="305.5" y="207.992" width="102.833" height="9.24345" fill="#8EAD99"/>
<rect x="305.5" y="227.635" width="102.833" height="9.24345" fill="#8EAD99"/>
<rect x="305.5" y="247.277" width="102.833" height="9.24345" fill="#8EAD99"/>
<rect x="305.5" y="266.919" width="102.833" height="9.24345" fill="#8EAD99"/>
<rect x="305.5" y="286.562" width="102.833" height="9.24345" fill="#8EAD99"/>
<rect x="407.333" y="0.0148926" width="102.833" height="549.985" fill="url(#paint4_linear_443_2598)"/>
<rect x="407.333" y="149.065" width="102.833" height="9.24345" fill="#8EAD99"/>
<rect x="407.333" y="168.708" width="102.833" height="9.24345" fill="#8EAD99"/>
<rect x="407.333" y="188.35" width="102.833" height="9.24345" fill="#8EAD99"/>
<rect x="407.333" y="207.992" width="102.833" height="9.24345" fill="#8EAD99"/>
<rect x="407.333" y="227.635" width="102.833" height="9.24345" fill="#8EAD99"/>
<rect x="407.333" y="247.277" width="102.833" height="9.24345" fill="#8EAD99"/>
<rect x="407.333" y="266.919" width="102.833" height="9.24345" fill="#8EAD99"/>
<rect x="407.333" y="286.562" width="102.833" height="9.24345" fill="#8EAD99"/>
<rect x="509.167" y="0.0148926" width="102.833" height="549.985" fill="url(#paint5_linear_443_2598)"/>
<rect x="509.167" y="50.8535" width="102.833" height="9.24345" fill="#054AFA"/>
<rect x="509.167" y="70.4961" width="102.833" height="9.24345" fill="#054AFA"/>
<rect x="509.167" y="90.1384" width="102.833" height="9.24345" fill="#056BFA"/>
<rect x="509.167" y="109.781" width="102.833" height="9.24345" fill="#0594FA"/>
<rect x="509.167" y="129.423" width="102.833" height="9.24345" fill="#05BDFA"/>
<rect x="509.167" y="149.065" width="102.833" height="9.24345" fill="#09D1E3"/>
<rect x="509.167" y="168.708" width="102.833" height="9.24345" fill="#0F9FAC"/>
<rect x="509.167" y="188.35" width="102.833" height="9.24345" fill="#0F9FAC"/>
<rect x="509.167" y="207.992" width="102.833" height="9.24345" fill="#1E5966"/>
<rect x="509.167" y="227.635" width="102.833" height="9.24345" fill="#152F41"/>
<rect x="509.167" y="247.277" width="102.833" height="9.24345" fill="#152F41"/>
<rect x="509.167" y="266.919" width="102.833" height="9.24345" fill="#16394B"/>
<rect x="509.167" y="286.562" width="102.833" height="9.24345" fill="#194555"/>
<rect x="509.167" y="303.893" width="102.833" height="23.1086" fill="#194B55"/>
<rect x="509.167" y="330.468" width="102.833" height="21.9532" fill="#176064"/>
<rect x="509.167" y="355.887" width="102.833" height="18.4869" fill="#337981"/>
<rect x="509.167" y="377.841" width="102.833" height="18.4869" fill="#238180"/>
<rect x="509.167" y="399.794" width="102.833" height="18.4869" fill="#1B7078"/>
<rect x="509.167" y="421.747" width="102.833" height="18.4869" fill="#176970"/>
<rect x="509.167" y="443.7" width="102.833" height="18.4869" fill="#1B7078"/>
<rect x="509.167" y="465.653" width="102.833" height="18.4869" fill="#1B7078"/>
<rect x="509.167" y="487.607" width="102.833" height="18.4869" fill="#1B7078"/>
<rect x="509.167" y="509.56" width="102.833" height="18.4869" fill="#1B7078"/>
<rect x="509.167" y="531.513" width="102.833" height="18.4869" fill="#1B7078"/>
<defs>
<linearGradient id="paint0_linear_443_2598" x1="51.4167" y1="0.0148926" x2="51.4167" y2="550" gradientUnits="userSpaceOnUse">
<stop offset="0.28356" stop-color="#0F1129"/>
<stop offset="0.877321" stop-color="#278084"/>
</linearGradient>
<linearGradient id="paint1_linear_443_2598" x1="153.25" y1="0.0148926" x2="153.25" y2="550" gradientUnits="userSpaceOnUse">
<stop offset="0.330436" stop-color="#0F1129"/>
<stop offset="1" stop-color="#278084"/>
</linearGradient>
<linearGradient id="paint2_linear_443_2598" x1="255.083" y1="0.0148926" x2="255.083" y2="550" gradientUnits="userSpaceOnUse">
<stop offset="0.28356" stop-color="#0F1129"/>
<stop offset="0.877321" stop-color="#152D4B"/>
</linearGradient>
<linearGradient id="paint3_linear_443_2598" x1="356.917" y1="0.0148926" x2="356.917" y2="550" gradientUnits="userSpaceOnUse">
<stop offset="0.15335" stop-color="#0F1129"/>
<stop offset="0.877321" stop-color="#152D4B"/>
</linearGradient>
<linearGradient id="paint4_linear_443_2598" x1="458.75" y1="0.0148926" x2="458.75" y2="550" gradientUnits="userSpaceOnUse">
<stop offset="0.0439728" stop-color="#0F1129"/>
<stop offset="0.684609" stop-color="#152D4B"/>
</linearGradient>
<linearGradient id="paint5_linear_443_2598" x1="560.583" y1="0.0148926" x2="560.583" y2="550" gradientUnits="userSpaceOnUse">
<stop offset="0.28356" stop-color="#0F1129"/>
<stop offset="0.877321" stop-color="#152D4B"/>
</linearGradient>
</defs>
</svg>
